<?xml version="1.0" encoding="UTF-8" standalone="no"?>
<!DOCTYPE svg PUBLIC "-//W3C//DTD SVG 1.1//EN" "http://www.w3.org/Graphics/SVG/1.1/DTD/svg11.dtd">
<svg xmlns="http://www.w3.org/2000/svg" version="1.1" viewBox="0.00 0.00 679.00 491.00">
<g stroke-width="2.00" fill="none" stroke-linecap="butt">
<path stroke="#4a0c07" vector-effect="non-scaling-stroke" d="
  M 82.15 264.39
  Q 87.85 321.97 123.36 367.44
  Q 129.35 375.10 136.39 382.25
  Q 164.01 410.28 199.09 426.03
  Q 208.49 430.25 217.78 433.17
  Q 275.73 451.36 333.48 434.91
  C 366.76 425.44 396.92 406.81 420.64 382.13
  Q 463.81 337.20 473.90 274.16
  A 1.02 1.01 16.1 0 0 473.29 273.06
  Q 472.67 272.80 472.02 273.68
  A 1.21 1.14 -24.9 0 0 471.82 274.18
  Q 462.67 332.36 423.95 375.59
  Q 386.20 417.73 331.40 433.50
  Q 322.03 436.20 311.91 437.89
  Q 267.63 445.29 224.76 433.19
  C 191.04 423.68 161.04 405.01 136.80 379.84
  Q 129.52 372.28 123.88 364.85
  Q 81.78 309.37 83.30 239.64
  C 84.15 200.84 97.55 162.45 119.67 131.90
  Q 161.28 74.45 230.07 56.04
  Q 239.67 53.47 249.87 52.10
  Q 294.53 46.09 333.56 57.88
  Q 397.37 77.16 436.69 130.80
  Q 463.97 168.01 471.91 216.64
  Q 472.03 217.40 472.73 217.71
  Q 473.15 217.90 473.59 217.47
  A 0.67 0.67 0.0 0 0 473.79 216.89
  Q 470.66 193.73 461.37 171.13
  C 444.47 129.98 414.80 95.59 375.83 73.73
  Q 316.66 40.55 248.77 50.30
  C 237.20 51.96 224.99 55.09 214.25 58.78
  C 128.41 88.23 73.18 173.94 82.15 264.39"
/>
<path stroke="#4a0c07" vector-effect="non-scaling-stroke" d="
  M 219.38 241.48
  Q 223.52 240.79 224.49 236.50
  C 225.74 230.95 224.87 223.71 217.79 223.18
  Q 211.66 222.72 203.02 223.15
  Q 202.00 223.20 202.00 224.22
  L 202.00 257.24
  Q 202.00 257.74 202.49 257.74
  L 205.74 257.77
  A 0.51 0.51 0.0 0 0 206.25 257.26
  L 206.24 243.80
  Q 206.24 243.29 206.75 243.33
  Q 210.13 243.65 214.00 243.46
  C 216.50 243.33 217.97 245.25 218.57 247.46
  Q 219.94 252.53 221.37 257.41
  Q 221.46 257.74 221.80 257.74
  L 225.72 257.77
  Q 226.11 257.78 226.00 257.41
  Q 224.38 251.81 222.51 245.93
  C 221.97 244.23 220.75 243.08 219.24 242.21
  Q 218.30 241.66 219.38 241.48"
/>
<path stroke="#4a0c07" vector-effect="non-scaling-stroke" d="
  M 276.24 255.43
  L 276.32 257.13
  A 0.64 0.64 0.0 0 0 276.95 257.74
  L 279.23 257.78
  Q 279.75 257.79 279.75 257.27
  L 279.75 223.51
  Q 279.75 223.02 279.26 223.02
  L 275.86 222.99
  Q 275.45 222.99 275.46 223.40
  L 275.62 234.54
  A 0.31 0.30 -77.7 0 1 275.19 234.82
  C 267.89 231.35 258.64 231.69 258.05 242.05
  C 257.74 247.65 257.35 257.89 265.54 258.36
  Q 270.77 258.66 275.23 254.99
  Q 276.19 254.20 276.24 255.43"
/>
<path stroke="#4a0c07" vector-effect="non-scaling-stroke" d="
  M 304.29 243.43
  L 311.63 243.53
  A 4.34 4.32 -7.5 0 1 315.73 246.67
  L 318.81 257.46
  Q 318.90 257.76 319.21 257.76
  L 323.28 257.74
  A 0.21 0.21 0.0 0 0 323.48 257.46
  Q 321.64 251.39 319.98 246.14
  Q 319.16 243.56 316.61 242.15
  Q 315.74 241.68 316.72 241.53
  Q 321.65 240.79 322.19 235.11
  C 322.77 229.10 321.85 223.47 314.31 223.11
  Q 306.94 222.75 299.79 223.21
  Q 299.25 223.24 299.25 223.78
  L 299.26 257.50
  Q 299.26 257.74 299.50 257.74
  L 303.49 257.76
  Q 303.75 257.76 303.75 257.51
  L 303.75 243.96
  Q 303.75 243.42 304.29 243.43"
/>
<path stroke="#4a0c07" vector-effect="non-scaling-stroke" d="
  M 361.97 236.51
  L 362.01 223.51
  A 0.50 0.50 0.0 0 0 361.51 223.01
  L 358.25 223.00
  Q 357.75 223.00 357.75 223.50
  L 357.76 256.02
  Q 357.76 256.68 358.39 256.87
  Q 364.54 258.73 370.65 258.35
  C 375.37 258.06 378.69 255.43 379.41 250.69
  C 380.16 245.80 380.74 234.81 373.89 233.28
  Q 367.37 231.83 362.41 236.70
  Q 361.97 237.13 361.97 236.51"
/>
<path stroke="#4a0c07" vector-effect="non-scaling-stroke" d="
  M 534.7114 224.1110
  A 1.12 1.12 0.0 0 0 533.5720 223.0107
  L 531.3124 223.0501
  A 1.12 1.12 0.0 0 0 530.2121 224.1895
  L 530.2686 227.4290
  A 1.12 1.12 0.0 0 0 531.4080 228.5293
  L 533.6676 228.4899
  A 1.12 1.12 0.0 0 0 534.7679 227.3505
  L 534.7114 224.1110"
/>
<path stroke="#4a0c07" vector-effect="non-scaling-stroke" d="
  M 450.50 241.25
  L 464.00 241.25
  Q 464.49 241.25 464.49 240.75
  L 464.50 238.25
  A 0.50 0.50 0.0 0 0 464.00 237.75
  L 450.37 237.75
  Q 449.74 237.75 449.74 237.12
  L 449.75 229.50
  A 2.50 2.50 0.0 0 1 452.25 227.00
  L 465.75 227.00
  Q 466.51 227.00 466.58 226.25
  L 466.77 224.20
  Q 466.83 223.57 466.20 223.53
  Q 455.92 222.94 450.60 223.43
  Q 445.29 223.92 445.26 229.91
  Q 445.22 239.96 445.24 251.43
  C 445.25 255.98 448.45 258.11 452.90 257.95
  Q 459.65 257.72 465.87 257.73
  Q 466.93 257.73 466.76 256.68
  L 466.46 254.93
  Q 466.35 254.26 465.68 254.26
  L 452.37 254.25
  A 2.63 2.63 0.0 0 1 449.74 251.62
  L 449.75 242.00
  Q 449.75 241.25 450.50 241.25"
/>
<path stroke="#4a0c07" vector-effect="non-scaling-stroke" d="
  M 416.08 233.42
  L 412.57 233.78
  Q 412.21 233.82 412.21 234.18
  L 412.27 236.51
  Q 412.27 236.75 412.51 236.75
  L 416.06 236.74
  Q 416.76 236.74 416.77 237.45
  Q 416.78 244.47 416.74 251.79
  C 416.70 258.79 422.61 258.86 427.92 257.76
  Q 428.39 257.66 428.35 257.18
  L 428.16 255.18
  Q 428.09 254.48 427.39 254.50
  C 424.87 254.56 420.97 254.99 420.99 251.30
  Q 421.02 244.22 420.99 237.44
  Q 420.99 236.74 421.69 236.74
  L 428.25 236.76
  Q 428.75 236.76 428.75 236.25
  L 428.74 233.99
  Q 428.73 233.50 428.24 233.50
  L 421.75 233.51
  A 0.76 0.75 90.0 0 1 421.00 232.75
  L 420.99 226.75
  Q 420.99 226.26 420.50 226.26
  L 417.25 226.25
  Q 416.75 226.25 416.75 226.75
  L 416.76 232.67
  Q 416.76 233.35 416.08 233.42"
/>
<path stroke="#4a0c07" vector-effect="non-scaling-stroke" d="
  M 408.1176 242.1104
  A 9.21 9.21 0.0 0 0 398.8756 232.9326
  L 394.5956 232.9475
  A 9.21 9.21 0.0 0 0 385.4178 242.1896
  L 385.4424 249.2296
  A 9.21 9.21 0.0 0 0 394.6844 258.4074
  L 398.9644 258.3925
  A 9.21 9.21 0.0 0 0 408.1422 249.1504
  L 408.1176 242.1104"
/>
<path stroke="#4a0c07" vector-effect="non-scaling-stroke" d="
  M 504.21 247.33
  Q 501.18 250.84 504.01 254.26
  Q 504.41 254.74 503.84 255.02
  Q 501.07 256.36 500.59 259.06
  C 499.74 263.94 501.94 266.88 506.73 267.58
  Q 512.78 268.45 518.53 267.39
  C 521.92 266.77 523.61 264.40 523.76 261.01
  Q 524.06 254.55 518.06 253.62
  Q 513.20 252.87 507.98 251.97
  A 2.10 2.09 5.7 0 1 506.24 249.85
  L 506.26 249.26
  Q 506.29 247.95 507.60 248.08
  C 511.77 248.51 519.49 249.03 521.47 244.60
  Q 523.18 240.81 521.42 236.55
  Q 521.20 236.01 521.77 236.01
  L 524.11 236.00
  A 0.88 0.87 -0.0 0 0 524.98 235.14
  L 525.00 234.22
  Q 525.01 233.47 524.26 233.48
  C 521.26 233.53 518.49 233.62 515.48 233.17
  Q 511.27 232.54 507.16 233.28
  Q 500.50 234.49 501.62 242.52
  Q 502.01 245.29 504.15 246.84
  A 0.34 0.33 38.9 0 1 504.21 247.33"
/>
<path stroke="#4a0c07" vector-effect="non-scaling-stroke" d="
  M 237.39 247.68
  Q 240.96 247.85 244.63 247.73
  C 246.66 247.66 248.29 248.01 250.11 246.83
  Q 251.93 245.64 252.33 243.27
  Q 253.89 233.95 244.52 233.02
  C 235.84 232.17 231.19 235.05 230.94 244.01
  C 230.77 249.89 231.31 256.43 238.10 257.94
  Q 243.76 259.20 251.41 257.34
  A 0.73 0.73 0.0 0 0 251.96 256.51
  L 251.66 254.72
  Q 251.58 254.23 251.09 254.30
  Q 246.59 254.95 240.89 254.69
  Q 237.87 254.55 236.54 251.83
  Q 236.19 251.10 235.74 250.18
  Q 234.45 247.53 237.39 247.68"
/>
<path stroke="#4a0c07" vector-effect="non-scaling-stroke" d="
  M 351.1437 242.1003
  A 9.11 9.11 0.0 0 0 342.0178 233.0062
  L 337.6178 233.0139
  A 9.11 9.11 0.0 0 0 328.5238 242.1397
  L 328.5363 249.3197
  A 9.11 9.11 0.0 0 0 337.6622 258.4138
  L 342.0622 258.4061
  A 9.11 9.11 0.0 0 0 351.1562 249.2803
  L 351.1437 242.1003"
/>
<path stroke="#4a0c07" vector-effect="non-scaling-stroke" d="
  M 477.02 236.47
  L 476.66 233.69
  Q 476.63 233.51 476.44 233.51
  L 473.50 233.50
  Q 473.25 233.50 473.25 233.75
  L 473.26 257.50
  Q 473.26 257.75 473.50 257.75
  L 477.24 257.76
  Q 477.50 257.76 477.50 257.51
  L 477.50 240.96
  Q 477.50 240.39 477.96 240.05
  C 480.24 238.36 490.30 233.07 490.28 239.73
  Q 490.23 249.33 490.27 257.45
  Q 490.27 257.73 490.55 257.74
  L 494.03 257.77
  Q 494.47 257.77 494.47 257.33
  Q 494.47 248.15 494.54 239.35
  C 494.57 236.13 493.05 233.44 489.59 233.05
  Q 483.51 232.36 477.87 236.82
  Q 477.14 237.40 477.02 236.47"
/>
<path stroke="#4a0c07" vector-effect="non-scaling-stroke" d="
  M 546.38 236.38
  Q 546.14 235.27 546.26 234.01
  Q 546.31 233.50 545.79 233.50
  L 543.00 233.50
  Q 542.50 233.50 542.50 234.00
  L 542.51 257.50
  Q 542.51 257.74 542.75 257.74
  L 546.49 257.76
  Q 546.75 257.76 546.75 257.51
  L 546.75 241.02
  Q 546.75 240.43 547.23 240.10
  C 550.40 237.97 559.75 232.91 559.75 240.46
  Q 559.76 249.04 559.76 257.29
  Q 559.76 257.74 560.21 257.74
  L 563.56 257.76
  Q 564.02 257.76 564.02 257.30
  Q 563.96 249.19 564.03 239.85
  C 564.06 236.39 562.73 233.40 558.84 233.02
  C 554.53 232.59 550.74 234.25 547.29 236.73
  Q 546.56 237.25 546.38 236.38"
/>
<path stroke="#4a0c07" vector-effect="non-scaling-stroke" d="
  M 577.16 247.66
  Q 581.72 247.86 586.66 247.71
  Q 589.84 247.62 591.12 245.23
  C 592.39 242.86 592.42 238.84 591.05 236.50
  C 589.20 233.32 584.99 232.94 581.58 232.90
  C 577.95 232.85 573.82 233.73 572.09 237.15
  C 570.08 241.14 569.38 250.58 572.84 255.04
  Q 574.91 257.72 578.91 258.21
  Q 584.94 258.95 591.18 257.24
  A 0.48 0.48 0.0 0 0 591.53 256.70
  L 591.22 254.71
  A 0.49 0.49 0.0 0 0 590.67 254.30
  Q 586.18 254.92 580.63 254.71
  Q 577.40 254.58 575.98 251.68
  Q 575.63 250.97 575.36 250.41
  Q 573.94 247.51 577.16 247.66"
/>
<path stroke="#4a0c07" vector-effect="non-scaling-stroke" d="
  M 534.50 233.82
  A 0.32 0.32 0.0 0 0 534.18 233.50
  L 530.58 233.50
  A 0.32 0.32 0.0 0 0 530.26 233.82
  L 530.26 257.44
  A 0.32 0.32 0.0 0 0 530.58 257.76
  L 534.18 257.76
  A 0.32 0.32 0.0 0 0 534.50 257.44
  L 534.50 233.82"
/>
<path stroke="#4a0c07" vector-effect="non-scaling-stroke" d="
  M 206.26 227.22
  L 206.22 239.00
  A 0.50 0.50 0.0 0 0 206.72 239.50
  L 215.40 239.53
  A 5.24 5.06 -89.8 0 0 220.48 234.30
  L 220.48 232.00
  A 5.24 5.06 -89.8 0 0 215.44 226.75
  L 206.76 226.72
  A 0.50 0.50 0.0 0 0 206.26 227.22"
/>
<path stroke="#4a0c07" vector-effect="non-scaling-stroke" d="
  M 262.97 239.64
  C 262.10 242.38 261.20 251.65 264.67 253.87
  C 268.03 256.04 272.14 254.00 275.04 251.74
  Q 275.51 251.38 275.51 250.79
  L 275.51 238.46
  Q 275.51 237.86 274.93 237.69
  C 271.39 236.68 264.44 235.00 262.97 239.64"
/>
<path stroke="#4a0c07" vector-effect="non-scaling-stroke" d="
  M 303.77 227.20
  L 303.71 238.98
  A 0.50 0.50 0.0 0 0 304.21 239.49
  L 312.88 239.53
  A 4.89 4.79 0.3 0 0 317.79 234.77
  L 317.81 231.57
  A 4.89 4.79 0.3 0 0 312.94 226.75
  L 304.27 226.71
  A 0.50 0.50 0.0 0 0 303.77 227.20"
/>
<path stroke="#4a0c07" vector-effect="non-scaling-stroke" d="
  M 370.54 254.63
  C 376.63 253.80 375.90 244.42 374.86 240.16
  Q 374.11 237.09 371.03 236.66
  Q 366.75 236.08 362.45 240.00
  A 1.34 1.34 0.0 0 0 362.00 241.00
  L 362.00 253.49
  A 0.68 0.68 0.0 0 0 362.53 254.15
  Q 366.84 255.12 370.54 254.63"
/>
<path stroke="#4a0c07" vector-effect="non-scaling-stroke" d="
  M 403.7414 242.4042
  A 5.85 5.85 0.0 0 0 397.9118 236.5339
  L 395.7318 236.5263
  A 5.85 5.85 0.0 0 0 389.8615 242.3558
  L 389.8386 248.8958
  A 5.85 5.85 0.0 0 0 395.6682 254.7661
  L 397.8482 254.7737
  A 5.85 5.85 0.0 0 0 403.7185 248.9442
  L 403.7414 242.4042"
/>
<path stroke="#4a0c07" vector-effect="non-scaling-stroke" d="
  M 518.2708 240.1413
  A 3.90 3.90 0.0 0 0 514.3776 236.2345
  L 509.2376 236.2255
  A 3.90 3.90 0.0 0 0 505.3308 240.1187
  L 505.3292 241.0587
  A 3.90 3.90 0.0 0 0 509.2224 244.9655
  L 514.3624 244.9745
  A 3.90 3.90 0.0 0 0 518.2692 241.0813
  L 518.2708 240.1413"
/>
<path stroke="#4a0c07" vector-effect="non-scaling-stroke" d="
  M 508.27 264.14
  Q 511.56 264.40 515.28 264.19
  Q 520.13 263.91 519.53 259.18
  C 519.36 257.85 518.35 257.12 517.10 256.95
  Q 513.12 256.43 509.31 255.78
  Q 506.07 255.23 504.85 258.29
  Q 504.51 259.14 504.50 260.03
  Q 504.48 263.83 508.27 264.14"
/>
<path stroke="#4a0c07" vector-effect="non-scaling-stroke" d="
  M 245.32 236.77
  C 239.36 235.56 235.21 237.31 235.45 243.98
  Q 235.47 244.51 236.00 244.51
  L 244.79 244.50
  Q 248.34 244.50 248.27 240.96
  L 248.25 240.28
  Q 248.19 237.35 245.32 236.77"
/>
<path stroke="#4a0c07" vector-effect="non-scaling-stroke" d="
  M 346.7526 242.3037
  A 5.78 5.78 0.0 0 0 340.9424 236.5540
  L 338.6024 236.5663
  A 5.78 5.78 0.0 0 0 332.8528 242.3764
  L 332.8874 248.9963
  A 5.78 5.78 0.0 0 0 338.6976 254.7460
  L 341.0376 254.7337
  A 5.78 5.78 0.0 0 0 346.7872 248.9236
  L 346.7526 242.3037"
/>
<path stroke="#4a0c07" vector-effect="non-scaling-stroke" d="
  M 575.43 240.54
  Q 575.25 241.34 575.01 242.11
  Q 574.21 244.75 576.97 244.62
  Q 581.33 244.42 585.42 244.47
  A 2.19 2.19 0.0 0 0 587.57 242.80
  C 589.08 236.56 584.00 235.91 579.50 236.68
  Q 576.18 237.25 575.43 240.54"
/>
</g>
<path fill="#0a0b0b" d="
  M 0.00 0.00
  L 679.00 0.00
  L 679.00 491.00
  L 0.00 491.00
  L 0.00 0.00
  Z
  M 82.15 264.39
  Q 87.85 321.97 123.36 367.44
  Q 129.35 375.10 136.39 382.25
  Q 164.01 410.28 199.09 426.03
  Q 208.49 430.25 217.78 433.17
  Q 275.73 451.36 333.48 434.91
  C 366.76 425.44 396.92 406.81 420.64 382.13
  Q 463.81 337.20 473.90 274.16
  A 1.02 1.01 16.1 0 0 473.29 273.06
  Q 472.67 272.80 472.02 273.68
  A 1.21 1.14 -24.9 0 0 471.82 274.18
  Q 462.67 332.36 423.95 375.59
  Q 386.20 417.73 331.40 433.50
  Q 322.03 436.20 311.91 437.89
  Q 267.63 445.29 224.76 433.19
  C 191.04 423.68 161.04 405.01 136.80 379.84
  Q 129.52 372.28 123.88 364.85
  Q 81.78 309.37 83.30 239.64
  C 84.15 200.84 97.55 162.45 119.67 131.90
  Q 161.28 74.45 230.07 56.04
  Q 239.67 53.47 249.87 52.10
  Q 294.53 46.09 333.56 57.88
  Q 397.37 77.16 436.69 130.80
  Q 463.97 168.01 471.91 216.64
  Q 472.03 217.40 472.73 217.71
  Q 473.15 217.90 473.59 217.47
  A 0.67 0.67 0.0 0 0 473.79 216.89
  Q 470.66 193.73 461.37 171.13
  C 444.47 129.98 414.80 95.59 375.83 73.73
  Q 316.66 40.55 248.77 50.30
  C 237.20 51.96 224.99 55.09 214.25 58.78
  C 128.41 88.23 73.18 173.94 82.15 264.39
  Z
  M 219.38 241.48
  Q 223.52 240.79 224.49 236.50
  C 225.74 230.95 224.87 223.71 217.79 223.18
  Q 211.66 222.72 203.02 223.15
  Q 202.00 223.20 202.00 224.22
  L 202.00 257.24
  Q 202.00 257.74 202.49 257.74
  L 205.74 257.77
  A 0.51 0.51 0.0 0 0 206.25 257.26
  L 206.24 243.80
  Q 206.24 243.29 206.75 243.33
  Q 210.13 243.65 214.00 243.46
  C 216.50 243.33 217.97 245.25 218.57 247.46
  Q 219.94 252.53 221.37 257.41
  Q 221.46 257.74 221.80 257.74
  L 225.72 257.77
  Q 226.11 257.78 226.00 257.41
  Q 224.38 251.81 222.51 245.93
  C 221.97 244.23 220.75 243.08 219.24 242.21
  Q 218.30 241.66 219.38 241.48
  Z
  M 276.24 255.43
  L 276.32 257.13
  A 0.64 0.64 0.0 0 0 276.95 257.74
  L 279.23 257.78
  Q 279.75 257.79 279.75 257.27
  L 279.75 223.51
  Q 279.75 223.02 279.26 223.02
  L 275.86 222.99
  Q 275.45 222.99 275.46 223.40
  L 275.62 234.54
  A 0.31 0.30 -77.7 0 1 275.19 234.82
  C 267.89 231.35 258.64 231.69 258.05 242.05
  C 257.74 247.65 257.35 257.89 265.54 258.36
  Q 270.77 258.66 275.23 254.99
  Q 276.19 254.20 276.24 255.43
  Z
  M 304.29 243.43
  L 311.63 243.53
  A 4.34 4.32 -7.5 0 1 315.73 246.67
  L 318.81 257.46
  Q 318.90 257.76 319.21 257.76
  L 323.28 257.74
  A 0.21 0.21 0.0 0 0 323.48 257.46
  Q 321.64 251.39 319.98 246.14
  Q 319.16 243.56 316.61 242.15
  Q 315.74 241.68 316.72 241.53
  Q 321.65 240.79 322.19 235.11
  C 322.77 229.10 321.85 223.47 314.31 223.11
  Q 306.94 222.75 299.79 223.21
  Q 299.25 223.24 299.25 223.78
  L 299.26 257.50
  Q 299.26 257.74 299.50 257.74
  L 303.49 257.76
  Q 303.75 257.76 303.75 257.51
  L 303.75 243.96
  Q 303.75 243.42 304.29 243.43
  Z
  M 361.97 236.51
  L 362.01 223.51
  A 0.50 0.50 0.0 0 0 361.51 223.01
  L 358.25 223.00
  Q 357.75 223.00 357.75 223.50
  L 357.76 256.02
  Q 357.76 256.68 358.39 256.87
  Q 364.54 258.73 370.65 258.35
  C 375.37 258.06 378.69 255.43 379.41 250.69
  C 380.16 245.80 380.74 234.81 373.89 233.28
  Q 367.37 231.83 362.41 236.70
  Q 361.97 237.13 361.97 236.51
  Z
  M 534.7114 224.1110
  A 1.12 1.12 0.0 0 0 533.5720 223.0107
  L 531.3124 223.0501
  A 1.12 1.12 0.0 0 0 530.2121 224.1895
  L 530.2686 227.4290
  A 1.12 1.12 0.0 0 0 531.4080 228.5293
  L 533.6676 228.4899
  A 1.12 1.12 0.0 0 0 534.7679 227.3505
  L 534.7114 224.1110
  Z
  M 450.50 241.25
  L 464.00 241.25
  Q 464.49 241.25 464.49 240.75
  L 464.50 238.25
  A 0.50 0.50 0.0 0 0 464.00 237.75
  L 450.37 237.75
  Q 449.74 237.75 449.74 237.12
  L 449.75 229.50
  A 2.50 2.50 0.0 0 1 452.25 227.00
  L 465.75 227.00
  Q 466.51 227.00 466.58 226.25
  L 466.77 224.20
  Q 466.83 223.57 466.20 223.53
  Q 455.92 222.94 450.60 223.43
  Q 445.29 223.92 445.26 229.91
  Q 445.22 239.96 445.24 251.43
  C 445.25 255.98 448.45 258.11 452.90 257.95
  Q 459.65 257.72 465.87 257.73
  Q 466.93 257.73 466.76 256.68
  L 466.46 254.93
  Q 466.35 254.26 465.68 254.26
  L 452.37 254.25
  A 2.63 2.63 0.0 0 1 449.74 251.62
  L 449.75 242.00
  Q 449.75 241.25 450.50 241.25
  Z
  M 416.08 233.42
  L 412.57 233.78
  Q 412.21 233.82 412.21 234.18
  L 412.27 236.51
  Q 412.27 236.75 412.51 236.75
  L 416.06 236.74
  Q 416.76 236.74 416.77 237.45
  Q 416.78 244.47 416.74 251.79
  C 416.70 258.79 422.61 258.86 427.92 257.76
  Q 428.39 257.66 428.35 257.18
  L 428.16 255.18
  Q 428.09 254.48 427.39 254.50
  C 424.87 254.56 420.97 254.99 420.99 251.30
  Q 421.02 244.22 420.99 237.44
  Q 420.99 236.74 421.69 236.74
  L 428.25 236.76
  Q 428.75 236.76 428.75 236.25
  L 428.74 233.99
  Q 428.73 233.50 428.24 233.50
  L 421.75 233.51
  A 0.76 0.75 90.0 0 1 421.00 232.75
  L 420.99 226.75
  Q 420.99 226.26 420.50 226.26
  L 417.25 226.25
  Q 416.75 226.25 416.75 226.75
  L 416.76 232.67
  Q 416.76 233.35 416.08 233.42
  Z
  M 408.1176 242.1104
  A 9.21 9.21 0.0 0 0 398.8756 232.9326
  L 394.5956 232.9475
  A 9.21 9.21 0.0 0 0 385.4178 242.1896
  L 385.4424 249.2296
  A 9.21 9.21 0.0 0 0 394.6844 258.4074
  L 398.9644 258.3925
  A 9.21 9.21 0.0 0 0 408.1422 249.1504
  L 408.1176 242.1104
  Z
  M 504.21 247.33
  Q 501.18 250.84 504.01 254.26
  Q 504.41 254.74 503.84 255.02
  Q 501.07 256.36 500.59 259.06
  C 499.74 263.94 501.94 266.88 506.73 267.58
  Q 512.78 268.45 518.53 267.39
  C 521.92 266.77 523.61 264.40 523.76 261.01
  Q 524.06 254.55 518.06 253.62
  Q 513.20 252.87 507.98 251.97
  A 2.10 2.09 5.7 0 1 506.24 249.85
  L 506.26 249.26
  Q 506.29 247.95 507.60 248.08
  C 511.77 248.51 519.49 249.03 521.47 244.60
  Q 523.18 240.81 521.42 236.55
  Q 521.20 236.01 521.77 236.01
  L 524.11 236.00
  A 0.88 0.87 -0.0 0 0 524.98 235.14
  L 525.00 234.22
  Q 525.01 233.47 524.26 233.48
  C 521.26 233.53 518.49 233.62 515.48 233.17
  Q 511.27 232.54 507.16 233.28
  Q 500.50 234.49 501.62 242.52
  Q 502.01 245.29 504.15 246.84
  A 0.34 0.33 38.9 0 1 504.21 247.33
  Z
  M 237.39 247.68
  Q 240.96 247.85 244.63 247.73
  C 246.66 247.66 248.29 248.01 250.11 246.83
  Q 251.93 245.64 252.33 243.27
  Q 253.89 233.95 244.52 233.02
  C 235.84 232.17 231.19 235.05 230.94 244.01
  C 230.77 249.89 231.31 256.43 238.10 257.94
  Q 243.76 259.20 251.41 257.34
  A 0.73 0.73 0.0 0 0 251.96 256.51
  L 251.66 254.72
  Q 251.58 254.23 251.09 254.30
  Q 246.59 254.95 240.89 254.69
  Q 237.87 254.55 236.54 251.83
  Q 236.19 251.10 235.74 250.18
  Q 234.45 247.53 237.39 247.68
  Z
  M 351.1437 242.1003
  A 9.11 9.11 0.0 0 0 342.0178 233.0062
  L 337.6178 233.0139
  A 9.11 9.11 0.0 0 0 328.5238 242.1397
  L 328.5363 249.3197
  A 9.11 9.11 0.0 0 0 337.6622 258.4138
  L 342.0622 258.4061
  A 9.11 9.11 0.0 0 0 351.1562 249.2803
  L 351.1437 242.1003
  Z
  M 477.02 236.47
  L 476.66 233.69
  Q 476.63 233.51 476.44 233.51
  L 473.50 233.50
  Q 473.25 233.50 473.25 233.75
  L 473.26 257.50
  Q 473.26 257.75 473.50 257.75
  L 477.24 257.76
  Q 477.50 257.76 477.50 257.51
  L 477.50 240.96
  Q 477.50 240.39 477.96 240.05
  C 480.24 238.36 490.30 233.07 490.28 239.73
  Q 490.23 249.33 490.27 257.45
  Q 490.27 257.73 490.55 257.74
  L 494.03 257.77
  Q 494.47 257.77 494.47 257.33
  Q 494.47 248.15 494.54 239.35
  C 494.57 236.13 493.05 233.44 489.59 233.05
  Q 483.51 232.36 477.87 236.82
  Q 477.14 237.40 477.02 236.47
  Z
  M 546.38 236.38
  Q 546.14 235.27 546.26 234.01
  Q 546.31 233.50 545.79 233.50
  L 543.00 233.50
  Q 542.50 233.50 542.50 234.00
  L 542.51 257.50
  Q 542.51 257.74 542.75 257.74
  L 546.49 257.76
  Q 546.75 257.76 546.75 257.51
  L 546.75 241.02
  Q 546.75 240.43 547.23 240.10
  C 550.40 237.97 559.75 232.91 559.75 240.46
  Q 559.76 249.04 559.76 257.29
  Q 559.76 257.74 560.21 257.74
  L 563.56 257.76
  Q 564.02 257.76 564.02 257.30
  Q 563.96 249.19 564.03 239.85
  C 564.06 236.39 562.73 233.40 558.84 233.02
  C 554.53 232.59 550.74 234.25 547.29 236.73
  Q 546.56 237.25 546.38 236.38
  Z
  M 577.16 247.66
  Q 581.72 247.86 586.66 247.71
  Q 589.84 247.62 591.12 245.23
  C 592.39 242.86 592.42 238.84 591.05 236.50
  C 589.20 233.32 584.99 232.94 581.58 232.90
  C 577.95 232.85 573.82 233.73 572.09 237.15
  C 570.08 241.14 569.38 250.58 572.84 255.04
  Q 574.91 257.72 578.91 258.21
  Q 584.94 258.95 591.18 257.24
  A 0.48 0.48 0.0 0 0 591.53 256.70
  L 591.22 254.71
  A 0.49 0.49 0.0 0 0 590.67 254.30
  Q 586.18 254.92 580.63 254.71
  Q 577.40 254.58 575.98 251.68
  Q 575.63 250.97 575.36 250.41
  Q 573.94 247.51 577.16 247.66
  Z
  M 534.50 233.82
  A 0.32 0.32 0.0 0 0 534.18 233.50
  L 530.58 233.50
  A 0.32 0.32 0.0 0 0 530.26 233.82
  L 530.26 257.44
  A 0.32 0.32 0.0 0 0 530.58 257.76
  L 534.18 257.76
  A 0.32 0.32 0.0 0 0 534.50 257.44
  L 534.50 233.82
  Z"
/>
<path fill="#890d02" d="
  M 82.15 264.39
  C 73.18 173.94 128.41 88.23 214.25 58.78
  C 224.99 55.09 237.20 51.96 248.77 50.30
  Q 316.66 40.55 375.83 73.73
  C 414.80 95.59 444.47 129.98 461.37 171.13
  Q 470.66 193.73 473.79 216.89
  A 0.67 0.67 0.0 0 1 473.59 217.47
  Q 473.15 217.90 472.73 217.71
  Q 472.03 217.40 471.91 216.64
  Q 463.97 168.01 436.69 130.80
  Q 397.37 77.16 333.56 57.88
  Q 294.53 46.09 249.87 52.10
  Q 239.67 53.47 230.07 56.04
  Q 161.28 74.45 119.67 131.90
  C 97.55 162.45 84.15 200.84 83.30 239.64
  Q 81.78 309.37 123.88 364.85
  Q 129.52 372.28 136.80 379.84
  C 161.04 405.01 191.04 423.68 224.76 433.19
  Q 267.63 445.29 311.91 437.89
  Q 322.03 436.20 331.40 433.50
  Q 386.20 417.73 423.95 375.59
  Q 462.67 332.36 471.82 274.18
  A 1.21 1.14 -24.9 0 1 472.02 273.68
  Q 472.67 272.80 473.29 273.06
  A 1.02 1.01 16.1 0 1 473.90 274.16
  Q 463.81 337.20 420.64 382.13
  C 396.92 406.81 366.76 425.44 333.48 434.91
  Q 275.73 451.36 217.78 433.17
  Q 208.49 430.25 199.09 426.03
  Q 164.01 410.28 136.39 382.25
  Q 129.35 375.10 123.36 367.44
  Q 87.85 321.97 82.15 264.39
  Z"
/>
<path fill="#890d02" d="
  M 219.38 241.48
  Q 218.30 241.66 219.24 242.21
  C 220.75 243.08 221.97 244.23 222.51 245.93
  Q 224.38 251.81 226.00 257.41
  Q 226.11 257.78 225.72 257.77
  L 221.80 257.74
  Q 221.46 257.74 221.37 257.41
  Q 219.94 252.53 218.57 247.46
  C 217.97 245.25 216.50 243.33 214.00 243.46
  Q 210.13 243.65 206.75 243.33
  Q 206.24 243.29 206.24 243.80
  L 206.25 257.26
  A 0.51 0.51 0.0 0 1 205.74 257.77
  L 202.49 257.74
  Q 202.00 257.74 202.00 257.24
  L 202.00 224.22
  Q 202.00 223.20 203.02 223.15
  Q 211.66 222.72 217.79 223.18
  C 224.87 223.71 225.74 230.95 224.49 236.50
  Q 223.52 240.79 219.38 241.48
  Z
  M 206.26 227.22
  L 206.22 239.00
  A 0.50 0.50 0.0 0 0 206.72 239.50
  L 215.40 239.53
  A 5.24 5.06 -89.8 0 0 220.48 234.30
  L 220.48 232.00
  A 5.24 5.06 -89.8 0 0 215.44 226.75
  L 206.76 226.72
  A 0.50 0.50 0.0 0 0 206.26 227.22
  Z"
/>
<path fill="#890d02" d="
  M 276.24 255.43
  Q 276.19 254.20 275.23 254.99
  Q 270.77 258.66 265.54 258.36
  C 257.35 257.89 257.74 247.65 258.05 242.05
  C 258.64 231.69 267.89 231.35 275.19 234.82
  A 0.31 0.30 -77.7 0 0 275.62 234.54
  L 275.46 223.40
  Q 275.45 222.99 275.86 222.99
  L 279.26 223.02
  Q 279.75 223.02 279.75 223.51
  L 279.75 257.27
  Q 279.75 257.79 279.23 257.78
  L 276.95 257.74
  A 0.64 0.64 0.0 0 1 276.32 257.13
  L 276.24 255.43
  Z
  M 262.97 239.64
  C 262.10 242.38 261.20 251.65 264.67 253.87
  C 268.03 256.04 272.14 254.00 275.04 251.74
  Q 275.51 251.38 275.51 250.79
  L 275.51 238.46
  Q 275.51 237.86 274.93 237.69
  C 271.39 236.68 264.44 235.00 262.97 239.64
  Z"
/>
<path fill="#890d02" d="
  M 303.75 243.96
  L 303.75 257.51
  Q 303.75 257.76 303.49 257.76
  L 299.50 257.74
  Q 299.26 257.74 299.26 257.50
  L 299.25 223.78
  Q 299.25 223.24 299.79 223.21
  Q 306.94 222.75 314.31 223.11
  C 321.85 223.47 322.77 229.10 322.19 235.11
  Q 321.65 240.79 316.72 241.53
  Q 315.74 241.68 316.61 242.15
  Q 319.16 243.56 319.98 246.14
  Q 321.64 251.39 323.48 257.46
  A 0.21 0.21 0.0 0 1 323.28 257.74
  L 319.21 257.76
  Q 318.90 257.76 318.81 257.46
  L 315.73 246.67
  A 4.34 4.32 -7.5 0 0 311.63 243.53
  L 304.29 243.43
  Q 303.75 243.42 303.75 243.96
  Z
  M 303.77 227.20
  L 303.71 238.98
  A 0.50 0.50 0.0 0 0 304.21 239.49
  L 312.88 239.53
  A 4.89 4.79 0.3 0 0 317.79 234.77
  L 317.81 231.57
  A 4.89 4.79 0.3 0 0 312.94 226.75
  L 304.27 226.71
  A 0.50 0.50 0.0 0 0 303.77 227.20
  Z"
/>
<path fill="#890d02" d="
  M 361.97 236.51
  Q 361.97 237.13 362.41 236.70
  Q 367.37 231.83 373.89 233.28
  C 380.74 234.81 380.16 245.80 379.41 250.69
  C 378.69 255.43 375.37 258.06 370.65 258.35
  Q 364.54 258.73 358.39 256.87
  Q 357.76 256.68 357.76 256.02
  L 357.75 223.50
  Q 357.75 223.00 358.25 223.00
  L 361.51 223.01
  A 0.50 0.50 0.0 0 1 362.01 223.51
  L 361.97 236.51
  Z
  M 370.54 254.63
  C 376.63 253.80 375.90 244.42 374.86 240.16
  Q 374.11 237.09 371.03 236.66
  Q 366.75 236.08 362.45 240.00
  A 1.34 1.34 0.0 0 0 362.00 241.00
  L 362.00 253.49
  A 0.68 0.68 0.0 0 0 362.53 254.15
  Q 366.84 255.12 370.54 254.63
  Z"
/>
<rect fill="#890d02" x="-2.25" y="-2.74" transform="translate(532.49,225.77) rotate(-1.0)" width="4.50" height="5.48" rx="1.12"/>
<path fill="#890d02" d="
  M 449.75 242.00
  L 449.74 251.62
  A 2.63 2.63 0.0 0 0 452.37 254.25
  L 465.68 254.26
  Q 466.35 254.26 466.46 254.93
  L 466.76 256.68
  Q 466.93 257.73 465.87 257.73
  Q 459.65 257.72 452.90 257.95
  C 448.45 258.11 445.25 255.98 445.24 251.43
  Q 445.22 239.96 445.26 229.91
  Q 445.29 223.92 450.60 223.43
  Q 455.92 222.94 466.20 223.53
  Q 466.83 223.57 466.77 224.20
  L 466.58 226.25
  Q 466.51 227.00 465.75 227.00
  L 452.25 227.00
  A 2.50 2.50 0.0 0 0 449.75 229.50
  L 449.74 237.12
  Q 449.74 237.75 450.37 237.75
  L 464.00 237.75
  A 0.50 0.50 0.0 0 1 464.50 238.25
  L 464.49 240.75
  Q 464.49 241.25 464.00 241.25
  L 450.50 241.25
  Q 449.75 241.25 449.75 242.00
  Z"
/>
<path fill="#890d02" d="
  M 416.76 232.67
  L 416.75 226.75
  Q 416.75 226.25 417.25 226.25
  L 420.50 226.26
  Q 420.99 226.26 420.99 226.75
  L 421.00 232.75
  A 0.76 0.75 90.0 0 0 421.75 233.51
  L 428.24 233.50
  Q 428.73 233.50 428.74 233.99
  L 428.75 236.25
  Q 428.75 236.76 428.25 236.76
  L 421.69 236.74
  Q 420.99 236.74 420.99 237.44
  Q 421.02 244.22 420.99 251.30
  C 420.97 254.99 424.87 254.56 427.39 254.50
  Q 428.09 254.48 428.16 255.18
  L 428.35 257.18
  Q 428.39 257.66 427.92 257.76
  C 422.61 258.86 416.70 258.79 416.74 251.79
  Q 416.78 244.47 416.77 237.45
  Q 416.76 236.74 416.06 236.74
  L 412.51 236.75
  Q 412.27 236.75 412.27 236.51
  L 412.21 234.18
  Q 412.21 233.82 412.57 233.78
  L 416.08 233.42
  Q 416.76 233.35 416.76 232.67
  Z"
/>
<path fill="#0a0b0b" d="
  M 206.26 227.22
  A 0.50 0.50 0.0 0 1 206.76 226.72
  L 215.44 226.75
  A 5.24 5.06 -89.8 0 1 220.48 232.00
  L 220.48 234.30
  A 5.24 5.06 -89.8 0 1 215.40 239.53
  L 206.72 239.50
  A 0.50 0.50 0.0 0 1 206.22 239.00
  L 206.26 227.22
  Z"
/>
<path fill="#0a0b0b" d="
  M 303.77 227.20
  A 0.50 0.50 0.0 0 1 304.27 226.71
  L 312.94 226.75
  A 4.89 4.79 0.3 0 1 317.81 231.57
  L 317.79 234.77
  A 4.89 4.79 0.3 0 1 312.88 239.53
  L 304.21 239.49
  A 0.50 0.50 0.0 0 1 303.71 238.98
  L 303.77 227.20
  Z"
/>
<path fill="#890d02" d="
  M 408.1422 249.1504
  A 9.21 9.21 0.0 0 1 398.9644 258.3925
  L 394.6844 258.4074
  A 9.21 9.21 0.0 0 1 385.4424 249.2296
  L 385.4178 242.1896
  A 9.21 9.21 0.0 0 1 394.5956 232.9475
  L 398.8756 232.9326
  A 9.21 9.21 0.0 0 1 408.1176 242.1104
  L 408.1422 249.1504
  Z
  M 403.7414 242.4042
  A 5.85 5.85 0.0 0 0 397.9118 236.5339
  L 395.7318 236.5263
  A 5.85 5.85 0.0 0 0 389.8615 242.3558
  L 389.8386 248.8958
  A 5.85 5.85 0.0 0 0 395.6682 254.7661
  L 397.8482 254.7737
  A 5.85 5.85 0.0 0 0 403.7185 248.9442
  L 403.7414 242.4042
  Z"
/>
<path fill="#890d02" d="
  M 504.21 247.33
  A 0.34 0.33 38.9 0 0 504.15 246.84
  Q 502.01 245.29 501.62 242.52
  Q 500.50 234.49 507.16 233.28
  Q 511.27 232.54 515.48 233.17
  C 518.49 233.62 521.26 233.53 524.26 233.48
  Q 525.01 233.47 525.00 234.22
  L 524.98 235.14
  A 0.88 0.87 -0.0 0 1 524.11 236.00
  L 521.77 236.01
  Q 521.20 236.01 521.42 236.55
  Q 523.18 240.81 521.47 244.60
  C 519.49 249.03 511.77 248.51 507.60 248.08
  Q 506.29 247.95 506.26 249.26
  L 506.24 249.85
  A 2.10 2.09 5.7 0 0 507.98 251.97
  Q 513.20 252.87 518.06 253.62
  Q 524.06 254.55 523.76 261.01
  C 523.61 264.40 521.92 266.77 518.53 267.39
  Q 512.78 268.45 506.73 267.58
  C 501.94 266.88 499.74 263.94 500.59 259.06
  Q 501.07 256.36 503.84 255.02
  Q 504.41 254.74 504.01 254.26
  Q 501.18 250.84 504.21 247.33
  Z
  M 518.2708 240.1413
  A 3.90 3.90 0.0 0 0 514.3776 236.2345
  L 509.2376 236.2255
  A 3.90 3.90 0.0 0 0 505.3308 240.1187
  L 505.3292 241.0587
  A 3.90 3.90 0.0 0 0 509.2224 244.9655
  L 514.3624 244.9745
  A 3.90 3.90 0.0 0 0 518.2692 241.0813
  L 518.2708 240.1413
  Z
  M 508.27 264.14
  Q 511.56 264.40 515.28 264.19
  Q 520.13 263.91 519.53 259.18
  C 519.36 257.85 518.35 257.12 517.10 256.95
  Q 513.12 256.43 509.31 255.78
  Q 506.07 255.23 504.85 258.29
  Q 504.51 259.14 504.50 260.03
  Q 504.48 263.83 508.27 264.14
  Z"
/>
<path fill="#890d02" d="
  M 237.39 247.68
  Q 234.45 247.53 235.74 250.18
  Q 236.19 251.10 236.54 251.83
  Q 237.87 254.55 240.89 254.69
  Q 246.59 254.95 251.09 254.30
  Q 251.58 254.23 251.66 254.72
  L 251.96 256.51
  A 0.73 0.73 0.0 0 1 251.41 257.34
  Q 243.76 259.20 238.10 257.94
  C 231.31 256.43 230.77 249.89 230.94 244.01
  C 231.19 235.05 235.84 232.17 244.52 233.02
  Q 253.89 233.95 252.33 243.27
  Q 251.93 245.64 250.11 246.83
  C 248.29 248.01 246.66 247.66 244.63 247.73
  Q 240.96 247.85 237.39 247.68
  Z
  M 245.32 236.77
  C 239.36 235.56 235.21 237.31 235.45 243.98
  Q 235.47 244.51 236.00 244.51
  L 244.79 244.50
  Q 248.34 244.50 248.27 240.96
  L 248.25 240.28
  Q 248.19 237.35 245.32 236.77
  Z"
/>
<path fill="#890d02" d="
  M 351.1562 249.2803
  A 9.11 9.11 0.0 0 1 342.0622 258.4061
  L 337.6622 258.4138
  A 9.11 9.11 0.0 0 1 328.5363 249.3197
  L 328.5238 242.1397
  A 9.11 9.11 0.0 0 1 337.6178 233.0139
  L 342.0178 233.0062
  A 9.11 9.11 0.0 0 1 351.1437 242.1003
  L 351.1562 249.2803
  Z
  M 346.7526 242.3037
  A 5.78 5.78 0.0 0 0 340.9424 236.5540
  L 338.6024 236.5663
  A 5.78 5.78 0.0 0 0 332.8528 242.3764
  L 332.8874 248.9963
  A 5.78 5.78 0.0 0 0 338.6976 254.7460
  L 341.0376 254.7337
  A 5.78 5.78 0.0 0 0 346.7872 248.9236
  L 346.7526 242.3037
  Z"
/>
<path fill="#890d02" d="
  M 477.87 236.82
  Q 483.51 232.36 489.59 233.05
  C 493.05 233.44 494.57 236.13 494.54 239.35
  Q 494.47 248.15 494.47 257.33
  Q 494.47 257.77 494.03 257.77
  L 490.55 257.74
  Q 490.27 257.73 490.27 257.45
  Q 490.23 249.33 490.28 239.73
  C 490.30 233.07 480.24 238.36 477.96 240.05
  Q 477.50 240.39 477.50 240.96
  L 477.50 257.51
  Q 477.50 257.76 477.24 257.76
  L 473.50 257.75
  Q 473.26 257.75 473.26 257.50
  L 473.25 233.75
  Q 473.25 233.50 473.50 233.50
  L 476.44 233.51
  Q 476.63 233.51 476.66 233.69
  L 477.02 236.47
  Q 477.14 237.40 477.87 236.82
  Z"
/>
<path fill="#890d02" d="
  M 547.29 236.73
  C 550.74 234.25 554.53 232.59 558.84 233.02
  C 562.73 233.40 564.06 236.39 564.03 239.85
  Q 563.96 249.19 564.02 257.30
  Q 564.02 257.76 563.56 257.76
  L 560.21 257.74
  Q 559.76 257.74 559.76 257.29
  Q 559.76 249.04 559.75 240.46
  C 559.75 232.91 550.40 237.97 547.23 240.10
  Q 546.75 240.43 546.75 241.02
  L 546.75 257.51
  Q 546.75 257.76 546.49 257.76
  L 542.75 257.74
  Q 542.51 257.74 542.51 257.50
  L 542.50 234.00
  Q 542.50 233.50 543.00 233.50
  L 545.79 233.50
  Q 546.31 233.50 546.26 234.01
  Q 546.14 235.27 546.38 236.38
  Q 546.56 237.25 547.29 236.73
  Z"
/>
<path fill="#890d02" d="
  M 577.16 247.66
  Q 573.94 247.51 575.36 250.41
  Q 575.63 250.97 575.98 251.68
  Q 577.40 254.58 580.63 254.71
  Q 586.18 254.92 590.67 254.30
  A 0.49 0.49 0.0 0 1 591.22 254.71
  L 591.53 256.70
  A 0.48 0.48 0.0 0 1 591.18 257.24
  Q 584.94 258.95 578.91 258.21
  Q 574.91 257.72 572.84 255.04
  C 569.38 250.58 570.08 241.14 572.09 237.15
  C 573.82 233.73 577.95 232.85 581.58 232.90
  C 584.99 232.94 589.20 233.32 591.05 236.50
  C 592.42 238.84 592.39 242.86 591.12 245.23
  Q 589.84 247.62 586.66 247.71
  Q 581.72 247.86 577.16 247.66
  Z
  M 575.43 240.54
  Q 575.25 241.34 575.01 242.11
  Q 574.21 244.75 576.97 244.62
  Q 581.33 244.42 585.42 244.47
  A 2.19 2.19 0.0 0 0 587.57 242.80
  C 589.08 236.56 584.00 235.91 579.50 236.68
  Q 576.18 237.25 575.43 240.54
  Z"
/>
<rect fill="#890d02" x="530.26" y="233.50" width="4.24" height="24.26" rx="0.32"/>
<rect fill="#0a0b0b" x="-6.47" y="-4.37" transform="translate(511.80,240.60) rotate(0.1)" width="12.94" height="8.74" rx="3.90"/>
<path fill="#0a0b0b" d="
  M 235.45 243.98
  C 235.21 237.31 239.36 235.56 245.32 236.77
  Q 248.19 237.35 248.25 240.28
  L 248.27 240.96
  Q 248.34 244.50 244.79 244.50
  L 236.00 244.51
  Q 235.47 244.51 235.45 243.98
  Z"
/>
<path fill="#0a0b0b" d="
  M 262.97 239.64
  C 264.44 235.00 271.39 236.68 274.93 237.69
  Q 275.51 237.86 275.51 238.46
  L 275.51 250.79
  Q 275.51 251.38 275.04 251.74
  C 272.14 254.00 268.03 256.04 264.67 253.87
  C 261.20 251.65 262.10 242.38 262.97 239.64
  Z"
/>
<rect fill="#0a0b0b" x="-6.95" y="-9.09" transform="translate(339.82,245.65) rotate(-0.3)" width="13.90" height="18.18" rx="5.78"/>
<path fill="#0a0b0b" d="
  M 374.86 240.16
  C 375.90 244.42 376.63 253.80 370.54 254.63
  Q 366.84 255.12 362.53 254.15
  A 0.68 0.68 0.0 0 1 362.00 253.49
  L 362.00 241.00
  A 1.34 1.34 0.0 0 1 362.45 240.00
  Q 366.75 236.08 371.03 236.66
  Q 374.11 237.09 374.86 240.16
  Z"
/>
<rect fill="#0a0b0b" x="-6.94" y="-9.12" transform="translate(396.79,245.65) rotate(0.2)" width="13.88" height="18.24" rx="5.85"/>
<path fill="#0a0b0b" d="
  M 575.43 240.54
  Q 576.18 237.25 579.50 236.68
  C 584.00 235.91 589.08 236.56 587.57 242.80
  A 2.19 2.19 0.0 0 1 585.42 244.47
  Q 581.33 244.42 576.97 244.62
  Q 574.21 244.75 575.01 242.11
  Q 575.25 241.34 575.43 240.54
  Z"
/>
<path fill="#0a0b0b" d="
  M 508.27 264.14
  Q 504.48 263.83 504.50 260.03
  Q 504.51 259.14 504.85 258.29
  Q 506.07 255.23 509.31 255.78
  Q 513.12 256.43 517.10 256.95
  C 518.35 257.12 519.36 257.85 519.53 259.18
  Q 520.13 263.91 515.28 264.19
  Q 511.56 264.40 508.27 264.14
  Z"
/>
</svg>
