<?xml version="1.0" encoding="UTF-8" standalone="no"?>
<!DOCTYPE svg PUBLIC "-//W3C//DTD SVG 1.1//EN" "http://www.w3.org/Graphics/SVG/1.1/DTD/svg11.dtd">
<svg xmlns="http://www.w3.org/2000/svg" version="1.1" viewBox="0.00 0.00 608.00 270.00">
<g stroke-width="2.00" fill="none" stroke-linecap="butt">
<path stroke="#a5abaf" vector-effect="non-scaling-stroke" d="
  M 234.71 21.37
  L 224.62 40.75"
/>
<path stroke="#bfc7ce" vector-effect="non-scaling-stroke" d="
  M 224.62 40.75
  L 223.95 41.86"
/>
<path stroke="#f5f5f4" vector-effect="non-scaling-stroke" d="
  M 223.95 41.86
  Q 223.73 41.29 223.28 41.19
  C 220.59 40.61 219.05 41.51 217.08 43.48
  Q 150.31 110.29 83.39 176.91"
/>
<path stroke="#a5abaf" vector-effect="non-scaling-stroke" d="
  M 83.39 176.91
  Q 80.83 174.97 80.15 173.83"
/>
<path stroke="#f5f5f4" vector-effect="non-scaling-stroke" d="
  M 80.15 173.83
  Q 79.87 172.56 79.95 171.55
  Q 80.02 170.59 80.68 169.93
  Q 147.33 103.26 213.67 36.91
  Q 214.89 35.69 214.46 33.99
  Q 212.88 27.73 212.74 21.54"
/>
<path stroke="#7a8794" vector-effect="non-scaling-stroke" d="
  M 233.72 42.95
  L 225.38 41.67
  Q 224.98 41.61 224.82 41.23
  L 224.62 40.75"
/>
<path stroke="#cad1d9" vector-effect="non-scaling-stroke" d="
  M 195.00 82.76
  Q 194.59 83.17 194.24 83.33"
/>
<path stroke="#7a8794" vector-effect="non-scaling-stroke" d="
  M 92.38 185.46
  Q 88.90 183.00 86.34 179.42"
/>
<path stroke="#cad1d9" vector-effect="non-scaling-stroke" d="
  M 86.34 179.42
  L 223.95 41.86"
/>
<path stroke="#b0b5ba" vector-effect="non-scaling-stroke" d="
  M 86.34 179.42
  L 83.39 176.91"
/>
<path stroke="#b0b5ba" vector-effect="non-scaling-stroke" d="
  M 80.15 173.83
  L 70.35 163.86
  A 0.58 0.57 18.1 0 1 70.19 163.55
  Q 70.13 163.18 70.31 163.39"
/>
<path stroke="#909398" vector-effect="non-scaling-stroke" d="
  M 93.26 185.58
  Q 100.82 189.69 105.74 191.28
  Q 109.17 192.38 114.19 192.01"
/>
<path stroke="#57626c" vector-effect="non-scaling-stroke" d="
  M 114.19 192.01
  Q 111.82 196.05 108.25 199.01
  Q 105.88 200.97 102.69 199.75
  Q 93.23 196.11 83.71 192.26
  Q 79.91 190.72 76.69 187.28
  Q 71.86 182.13 67.04 177.39
  C 65.79 176.16 64.81 174.75 64.08 173.17
  C 61.33 167.19 59.44 161.02 56.90 155.00
  Q 54.43 149.17 51.89 143.46"
/>
<path stroke="#e0dddd" vector-effect="non-scaling-stroke" d="
  M 222.23 172.45
  L 195.50 171.86
  Q 195.01 171.85 194.85 171.38
  L 194.28 169.69"
/>
<path stroke="#a16b6b" vector-effect="non-scaling-stroke" d="
  M 58.49 212.84
  L 66.48 204.85"
/>
<path stroke="#878a8e" vector-effect="non-scaling-stroke" d="
  M 114.19 192.01
  L 117.70 192.05
  A 2.32 2.32 0.0 0 1 119.90 193.77
  Q 120.39 195.62 119.08 196.97
  Q 114.69 201.50 109.45 206.37
  A 4.28 4.27 -55.4 0 1 104.92 207.21
  L 76.05 195.45"
/>
<path stroke="#483470" vector-effect="non-scaling-stroke" d="
  M 76.05 195.45
  L 60.25 179.34"
/>
<path stroke="#81659c" vector-effect="non-scaling-stroke" d="
  M 76.05 195.45
  L 66.48 204.85"
/>
<path stroke="#62164c" vector-effect="non-scaling-stroke" d="
  M 66.48 204.85
  L 62.00 200.85"
/>
<path stroke="#7d1f56" vector-effect="non-scaling-stroke" d="
  M 62.00 200.85
  Q 62.37 200.31 62.15 200.29"
/>
<path stroke="#6519b5" vector-effect="non-scaling-stroke" d="
  M 62.15 200.29
  C 63.94 198.71 67.88 196.05 65.56 193.46
  Q 61.39 188.81 55.75 184.16"
/>
<path stroke="#683b3f" vector-effect="non-scaling-stroke" d="
  M 42.71 228.72
  Q 42.24 228.37 42.11 228.36"
/>
<path stroke="#714448" vector-effect="non-scaling-stroke" d="
  M 42.11 228.36
  L 38.22 224.51"
/>
<path stroke="#9c2525" vector-effect="non-scaling-stroke" d="
  M 62.00 200.85
  L 38.22 224.51"
/>
<path stroke="#8c4d52" vector-effect="non-scaling-stroke" d="
  M 38.22 224.51
  L 27.17 213.00"
/>
<path stroke="#9f288e" vector-effect="non-scaling-stroke" d="
  M 62.15 200.29
  Q 61.51 200.28 60.84 199.67
  Q 55.78 195.07 51.08 189.05"
/>
<path stroke="#57626c" vector-effect="non-scaling-stroke" d="
  M 42.11 228.36
  Q 37.80 233.63 32.49 237.78"
/>
<path stroke="#f5f5f4" vector-effect="non-scaling-stroke" d="
  M 390.06 172.48
  L 342.82 172.45"
/>
<path stroke="#d5d2d2" vector-effect="non-scaling-stroke" d="
  M 384.02 177.03
  L 341.90 177.13
  Q 341.39 177.14 341.05 176.75
  L 340.16 175.70"
/>
<path stroke="#e0dddd" vector-effect="non-scaling-stroke" d="
  M 323.71 173.33
  L 299.28 173.67
  Q 299.23 173.67 299.19 173.71
  Q 299.10 173.81 299.04 173.90
  Q 298.62 174.43 298.67 173.76
  Q 298.72 172.94 298.29 172.70"
/>
<path stroke="#e0dddd" vector-effect="non-scaling-stroke" d="
  M 284.98 171.60
  L 259.52 171.34"
/>
<path stroke="#e0dddd" vector-effect="non-scaling-stroke" d="
  M 512.92 176.13
  L 487.53 175.78"
/>
<path stroke="#e0dddd" vector-effect="non-scaling-stroke" d="
  M 474.48 175.44
  Q 472.80 175.43 471.26 175.09
  Q 470.04 174.82 469.36 175.74
  Q 468.99 176.23 468.38 176.32
  Q 466.76 176.58 465.17 175.90
  A 1.20 1.17 -49.6 0 0 464.07 176.00
  C 463.07 176.64 462.12 177.15 460.88 177.16
  Q 454.87 177.22 448.77 177.11"
/>
<path stroke="#e0dddd" vector-effect="non-scaling-stroke" d="
  M 548.24 173.80
  L 523.02 173.51"
/>
<path stroke="#e0dddd" vector-effect="non-scaling-stroke" d="
  M 436.49 173.27
  L 411.03 172.86"
/>
<path stroke="#f5f5f4" vector-effect="non-scaling-stroke" d="
  M 206.0012 156.7939
  A 0.65 0.65 0.0 0 0 205.9819 155.8748
  L 201.3194 151.4036
  A 0.65 0.65 0.0 0 0 200.4003 151.4228
  L 200.3588 151.4661
  A 0.65 0.65 0.0 0 0 200.3781 152.3852
  L 205.0406 156.8564
  A 0.65 0.65 0.0 0 0 205.9597 156.8372
  L 206.0012 156.7939"
/>
<path stroke="#f5f5f4" vector-effect="non-scaling-stroke" d="
  M 350.0351 156.8706
  A 0.72 0.72 0.0 0 0 350.0226 155.8525
  L 345.5710 151.5083
  A 0.72 0.72 0.0 0 0 344.5529 151.5208
  L 344.5249 151.5494
  A 0.72 0.72 0.0 0 0 344.5374 152.5675
  L 348.9890 156.9117
  A 0.72 0.72 0.0 0 0 350.0071 156.8992
  L 350.0351 156.8706"
/>
</g>
<path fill="#eaeae9" d="
  M 234.71 21.37
  L 224.62 40.75
  L 223.95 41.86
  Q 223.73 41.29 223.28 41.19
  C 220.59 40.61 219.05 41.51 217.08 43.48
  Q 150.31 110.29 83.39 176.91
  Q 80.83 174.97 80.15 173.83
  Q 79.87 172.56 79.95 171.55
  Q 80.02 170.59 80.68 169.93
  Q 147.33 103.26 213.67 36.91
  Q 214.89 35.69 214.46 33.99
  Q 212.88 27.73 212.74 21.54
  Q 217.02 21.14 221.43 21.05
  Q 222.43 21.02 228.01 20.42
  Q 232.04 19.98 234.71 21.37
  Z"
/>
<path fill="#ffffff" d="
  M 212.74 21.54
  Q 212.88 27.73 214.46 33.99
  Q 214.89 35.69 213.67 36.91
  Q 147.33 103.26 80.68 169.93
  Q 80.02 170.59 79.95 171.55
  Q 79.87 172.56 80.15 173.83
  L 70.35 163.86
  A 0.58 0.57 18.1 0 1 70.19 163.55
  Q 70.13 163.18 70.31 163.39
  L 147.61 86.12
  Q 147.99 85.73 147.44 85.73
  Q 121.53 85.77 94.90 85.76
  C 92.13 85.76 89.83 83.39 88.70 81.05
  Q 83.38 69.98 88.55 58.68
  C 89.97 55.59 92.71 53.47 96.25 53.47
  Q 141.55 53.56 179.40 53.50
  A 2.15 2.12 22.4 0 0 180.90 52.89
  L 212.74 21.54
  Z"
/>
<path fill="#606b75" d="
  M 234.71 21.37
  Q 235.11 30.50 234.80 38.29
  C 234.73 40.01 234.13 41.24 233.72 42.95
  L 225.38 41.67
  Q 224.98 41.61 224.82 41.23
  L 224.62 40.75
  L 234.71 21.37
  Z"
/>
<path fill="#94a3b3" d="
  M 224.62 40.75
  L 224.82 41.23
  Q 224.98 41.61 225.38 41.67
  L 233.72 42.95
  Q 234.00 43.52 232.52 45.00
  Q 202.93 74.69 195.28 82.27
  Q 194.99 82.55 195.00 82.76
  Q 194.59 83.17 194.24 83.33
  L 92.38 185.46
  Q 88.90 183.00 86.34 179.42
  L 223.95 41.86
  L 224.62 40.75
  Z"
/>
<path fill="#ffffff" d="
  M 223.95 41.86
  L 86.34 179.42
  L 83.39 176.91
  Q 150.31 110.29 217.08 43.48
  C 219.05 41.51 220.59 40.61 223.28 41.19
  Q 223.73 41.29 223.95 41.86
  Z"
/>
<path fill="#ffffff" d="
  M 195.00 82.76
  L 250.99 82.80
  Q 251.50 82.80 251.50 83.31
  L 251.49 101.38
  A 0.62 0.62 0.0 0 1 250.87 102.00
  L 222.74 102.00
  Q 222.24 102.00 222.24 102.51
  L 222.22 133.52
  Q 222.22 133.83 222.52 133.83
  L 244.24 133.74
  Q 244.50 133.74 244.50 134.00
  L 244.50 152.75
  Q 244.50 153.25 244.00 153.25
  L 222.77 153.24
  Q 222.28 153.24 222.28 153.74
  L 222.23 172.45
  L 195.50 171.86
  Q 195.01 171.85 194.85 171.38
  L 194.28 169.69
  L 194.24 83.33
  Q 194.59 83.17 195.00 82.76
  Z
  M 206.0012 156.7939
  A 0.65 0.65 0.0 0 0 205.9819 155.8748
  L 201.3194 151.4036
  A 0.65 0.65 0.0 0 0 200.4003 151.4228
  L 200.3588 151.4661
  A 0.65 0.65 0.0 0 0 200.3781 152.3852
  L 205.0406 156.8564
  A 0.65 0.65 0.0 0 0 205.9597 156.8372
  L 206.0012 156.7939
  Z"
/>
<rect fill="#ffffff" x="410.77" y="86.25" width="25.72" height="17.74" rx="0.40"/>
<path fill="#ffffff" d="
  M 390.06 172.48
  L 342.82 172.45
  Q 339.05 169.30 337.41 165.51
  Q 331.82 152.62 335.71 138.18
  C 340.35 120.96 357.12 116.13 373.26 118.28
  Q 381.64 119.40 387.80 124.44
  Q 388.28 124.83 388.64 124.32
  Q 393.32 117.68 402.07 114.23
  Q 402.64 114.00 402.90 114.55
  L 408.23 125.55
  Q 408.50 126.10 407.92 126.32
  Q 401.06 128.92 394.97 132.21
  Q 394.47 132.48 394.68 133.00
  C 399.63 145.19 399.82 162.38 390.06 172.48
  Z
  M 359.81 142.53
  Q 359.24 151.97 360.31 159.55
  Q 361.17 165.60 366.91 165.62
  C 370.30 165.63 372.48 163.46 372.99 160.17
  Q 374.75 148.79 372.92 138.31
  Q 372.08 133.56 367.44 133.11
  C 361.19 132.50 360.10 137.73 359.81 142.53
  Z
  M 350.0351 156.8706
  A 0.72 0.72 0.0 0 0 350.0226 155.8525
  L 345.5710 151.5083
  A 0.72 0.72 0.0 0 0 344.5529 151.5208
  L 344.5249 151.5494
  A 0.72 0.72 0.0 0 0 344.5374 152.5675
  L 348.9890 156.9117
  A 0.72 0.72 0.0 0 0 350.0071 156.8992
  L 350.0351 156.8706
  Z"
/>
<path fill="#ffffff" d="
  M 323.71 173.33
  L 299.28 173.67
  Q 299.23 173.67 299.19 173.71
  Q 299.10 173.81 299.04 173.90
  Q 298.62 174.43 298.67 173.76
  Q 298.72 172.94 298.29 172.70
  Q 298.22 157.36 298.25 142.01
  Q 298.27 134.86 291.65 136.07
  Q 288.88 136.58 285.45 138.87
  Q 284.99 139.18 284.99 139.74
  L 284.98 171.60
  L 259.52 171.34
  L 259.55 119.76
  Q 259.55 119.25 260.05 119.25
  L 284.12 119.25
  Q 284.99 119.25 284.99 120.12
  L 285.00 127.93
  Q 285.00 128.67 285.52 128.14
  C 291.09 122.44 298.31 118.23 305.85 117.89
  C 318.17 117.32 323.71 127.40 323.75 138.25
  Q 323.81 154.69 323.71 173.33
  Z"
/>
<path fill="#ffffff" d="
  M 512.92 176.13
  L 487.53 175.78
  Q 487.52 159.54 487.51 143.44
  Q 487.51 139.52 486.80 138.17
  C 484.56 133.86 478.37 136.47 474.93 138.78
  Q 474.51 139.06 474.51 139.56
  L 474.48 175.44
  Q 472.80 175.43 471.26 175.09
  Q 470.04 174.82 469.36 175.74
  Q 468.99 176.23 468.38 176.32
  Q 466.76 176.58 465.17 175.90
  A 1.20 1.17 -49.6 0 0 464.07 176.00
  C 463.07 176.64 462.12 177.15 460.88 177.16
  Q 454.87 177.22 448.77 177.11
  L 448.79 119.51
  A 0.26 0.25 90.0 0 1 449.04 119.25
  L 474.00 119.25
  Q 474.50 119.25 474.50 119.75
  L 474.49 127.47
  Q 474.49 128.28 475.10 127.75
  C 480.60 123.02 485.59 119.35 492.63 118.18
  Q 503.45 116.39 508.75 123.91
  Q 513.07 130.03 513.08 138.25
  Q 513.10 157.29 512.92 176.13
  Z"
/>
<path fill="#ffffff" d="
  M 548.24 173.80
  L 523.02 173.51
  Q 522.95 164.13 522.98 155.02
  Q 523.03 141.74 524.48 137.25
  Q 529.67 121.14 547.48 118.35
  Q 554.57 117.23 561.94 118.39
  Q 579.46 121.12 583.46 137.44
  C 584.29 140.83 584.79 144.35 584.78 147.90
  Q 584.73 157.07 584.77 165.95
  Q 584.77 166.50 584.22 166.50
  L 548.78 166.49
  Q 548.29 166.49 548.29 166.97
  L 548.24 173.80
  Z
  M 548.50 154.52
  L 560.98 154.52
  A 0.25 0.25 0.0 0 0 561.23 154.27
  L 561.23 143.93
  A 7.95 6.05 90.0 0 0 555.18 135.98
  L 554.30 135.98
  A 7.95 6.05 -90.0 0 0 548.25 143.93
  L 548.25 154.27
  A 0.25 0.25 0.0 0 0 548.50 154.52
  Z"
/>
<path fill="#ffffff" d="
  M 436.49 173.27
  L 411.03 172.86
  L 411.03 119.51
  A 0.26 0.26 0.0 0 1 411.29 119.25
  L 436.21 119.25
  Q 436.47 119.25 436.47 119.51
  L 436.49 173.27
  Z"
/>
<path fill="#606b75" d="
  M 70.31 163.39
  Q 70.13 163.18 70.19 163.55
  A 0.58 0.57 18.1 0 0 70.35 163.86
  L 80.15 173.83
  Q 80.83 174.97 83.39 176.91
  L 86.34 179.42
  Q 88.90 183.00 92.38 185.46
  Q 94.25 185.52 93.26 185.58
  Q 100.82 189.69 105.74 191.28
  Q 109.17 192.38 114.19 192.01
  Q 111.82 196.05 108.25 199.01
  Q 105.88 200.97 102.69 199.75
  Q 93.23 196.11 83.71 192.26
  Q 79.91 190.72 76.69 187.28
  Q 71.86 182.13 67.04 177.39
  C 65.79 176.16 64.81 174.75 64.08 173.17
  C 61.33 167.19 59.44 161.02 56.90 155.00
  Q 54.43 149.17 51.89 143.46
  L 59.46 136.12
  A 1.88 1.87 27.9 0 1 61.10 135.62
  Q 63.48 136.04 63.52 138.64
  C 63.57 142.61 63.03 146.92 64.64 150.74
  Q 67.19 156.75 69.48 163.12
  Q 69.60 163.45 69.95 163.42
  L 70.31 163.39
  Z"
/>
<path fill="#4e5962" d="
  M 51.89 143.46
  Q 54.43 149.17 56.90 155.00
  C 59.44 161.02 61.33 167.19 64.08 173.17
  C 64.81 174.75 65.79 176.16 67.04 177.39
  Q 71.86 182.13 76.69 187.28
  Q 79.91 190.72 83.71 192.26
  Q 93.23 196.11 102.69 199.75
  Q 105.88 200.97 108.25 199.01
  Q 111.82 196.05 114.19 192.01
  L 117.70 192.05
  A 2.32 2.32 0.0 0 1 119.90 193.77
  Q 120.39 195.62 119.08 196.97
  Q 114.69 201.50 109.45 206.37
  A 4.28 4.27 -55.4 0 1 104.92 207.21
  L 76.05 195.45
  L 60.25 179.34
  Q 54.07 164.61 48.26 149.74
  Q 48.12 149.37 48.20 148.25
  Q 48.25 147.50 48.67 146.87
  Q 50.21 144.58 51.89 143.46
  Z"
/>
<rect fill="#eaeae9" x="-3.88" y="-0.68" transform="translate(203.18,154.13) rotate(43.8)" width="7.76" height="1.36" rx="0.65"/>
<rect fill="#eaeae9" x="-3.83" y="-0.74" transform="translate(347.28,154.21) rotate(44.3)" width="7.66" height="1.48" rx="0.72"/>
<path fill="#c0baba" d="
  M 194.28 169.69
  L 194.85 171.38
  Q 195.01 171.85 195.50 171.86
  L 222.23 172.45
  L 222.29 190.76
  Q 222.29 191.25 222.78 191.25
  L 251.51 191.26
  A 0.25 0.24 90.0 0 1 251.75 191.51
  L 251.75 209.60
  Q 251.75 210.20 251.15 210.20
  L 194.53 210.24
  A 0.27 0.26 90.0 0 1 194.27 209.97
  L 194.28 169.69
  Z"
/>
<path fill="#c0baba" d="
  M 259.52 171.34
  L 284.98 171.60
  L 284.96 209.25
  Q 284.96 210.24 283.97 210.24
  L 260.01 210.24
  Q 259.51 210.24 259.51 209.74
  L 259.52 171.34
  Z"
/>
<path fill="#c0baba" d="
  M 323.71 173.33
  L 323.70 209.61
  A 0.64 0.64 0.0 0 1 323.06 210.25
  L 298.55 210.25
  A 0.25 0.24 90.0 0 1 298.31 210.00
  L 298.29 172.70
  Q 298.72 172.94 298.67 173.76
  Q 298.62 174.43 299.04 173.90
  Q 299.10 173.81 299.19 173.71
  Q 299.23 173.67 299.28 173.67
  L 323.71 173.33
  Z"
/>
<path fill="#eaeae9" d="
  M 342.82 172.45
  L 390.06 172.48
  Q 387.35 175.38 384.02 177.03
  L 341.90 177.13
  Q 341.39 177.14 341.05 176.75
  L 340.16 175.70
  Q 343.02 173.66 342.82 172.45
  Z"
/>
<path fill="#c0baba" d="
  M 411.03 172.86
  L 436.49 173.27
  L 436.46 209.70
  A 0.52 0.52 0.0 0 1 435.94 210.22
  L 411.80 210.25
  A 0.76 0.76 0.0 0 1 411.04 209.49
  L 411.03 172.86
  Z"
/>
<path fill="#c0baba" d="
  M 523.02 173.51
  L 548.24 173.80
  Q 548.21 179.16 548.29 184.75
  C 548.35 188.51 549.30 192.93 553.65 193.49
  C 559.07 194.18 561.10 190.08 561.22 185.53
  Q 561.33 180.75 561.26 175.99
  Q 561.25 175.25 561.99 175.25
  L 584.02 175.25
  Q 584.76 175.25 584.77 175.99
  Q 584.92 183.66 584.49 187.97
  Q 582.68 206.13 565.33 210.56
  C 557.85 212.47 548.37 212.32 540.97 209.66
  Q 526.21 204.34 523.54 188.12
  Q 523.11 185.48 523.06 180.84
  Q 523.01 177.05 523.02 173.51
  Z"
/>
<path fill="#c0baba" d="
  M 474.48 175.44
  L 474.48 209.53
  A 0.70 0.69 0.0 0 1 473.78 210.22
  L 449.48 210.25
  A 0.69 0.68 -0.0 0 1 448.79 209.57
  L 448.77 177.11
  Q 454.87 177.22 460.88 177.16
  C 462.12 177.15 463.07 176.64 464.07 176.00
  A 1.20 1.17 -49.6 0 1 465.17 175.90
  Q 466.76 176.58 468.38 176.32
  Q 468.99 176.23 469.36 175.74
  Q 470.04 174.82 471.26 175.09
  Q 472.80 175.43 474.48 175.44
  Z"
/>
<path fill="#c0baba" d="
  M 340.16 175.70
  L 341.05 176.75
  Q 341.39 177.14 341.90 177.13
  L 384.02 177.03
  C 374.96 181.74 362.43 181.78 353.36 178.88
  Q 350.20 177.87 349.43 181.09
  Q 349.27 181.74 349.01 182.40
  A 3.59 3.59 0.0 0 0 351.05 187.06
  Q 354.15 188.27 357.30 188.62
  Q 369.11 189.91 381.59 191.36
  C 387.79 192.08 394.07 194.10 398.32 198.80
  Q 403.98 205.04 403.95 215.02
  C 403.90 230.26 394.69 238.00 380.63 240.44
  Q 371.80 241.97 363.05 241.74
  C 352.52 241.47 333.06 239.13 331.63 225.12
  C 330.69 215.84 336.70 209.34 344.62 205.60
  Q 345.70 205.09 344.57 204.72
  Q 329.45 199.74 334.28 183.74
  Q 335.15 180.85 340.16 175.70
  Z
  M 366.92 208.21
  Q 361.53 207.62 356.27 207.24
  Q 355.79 207.20 355.40 207.50
  C 349.27 212.13 348.05 220.52 357.32 222.24
  Q 368.43 224.29 379.81 222.29
  C 382.77 221.77 385.90 220.05 386.27 216.73
  Q 386.73 212.62 383.23 211.12
  C 378.45 209.07 372.37 208.81 366.92 208.21
  Z"
/>
<path fill="#c0baba" d="
  M 487.53 175.78
  L 512.92 176.13
  L 512.95 209.47
  Q 512.95 210.23 512.19 210.23
  L 488.23 210.25
  A 0.69 0.68 -0.0 0 1 487.54 209.57
  L 487.53 175.78
  Z"
/>
<path fill="#420f7d" d="
  M 60.25 179.34
  L 76.05 195.45
  L 66.48 204.85
  L 62.00 200.85
  Q 62.37 200.31 62.15 200.29
  C 63.94 198.71 67.88 196.05 65.56 193.46
  Q 61.39 188.81 55.75 184.16
  L 60.25 179.34
  Z"
/>
<path fill="#8722ed" d="
  M 55.75 184.16
  Q 61.39 188.81 65.56 193.46
  C 67.88 196.05 63.94 198.71 62.15 200.29
  Q 61.51 200.28 60.84 199.67
  Q 55.78 195.07 51.08 189.05
  L 55.75 184.16
  Z"
/>
<path fill="#c0baba" d="
  M 93.26 185.58
  Q 138.51 185.39 166.25 185.51
  C 172.64 185.54 176.77 190.69 177.71 196.78
  C 178.70 203.26 175.44 211.50 168.30 212.78
  Q 167.66 212.89 161.19 212.90
  Q 110.13 212.96 58.49 212.84
  L 66.48 204.85
  L 76.05 195.45
  L 104.92 207.21
  A 4.28 4.27 -55.4 0 0 109.45 206.37
  Q 114.69 201.50 119.08 196.97
  Q 120.39 195.62 119.90 193.77
  A 2.32 2.32 0.0 0 0 117.70 192.05
  L 114.19 192.01
  Q 109.17 192.38 105.74 191.28
  Q 100.82 189.69 93.26 185.58
  Z"
/>
<path fill="#b72e2f" d="
  M 51.08 189.05
  Q 55.78 195.07 60.84 199.67
  Q 61.51 200.28 62.15 200.29
  Q 62.37 200.31 62.00 200.85
  L 38.22 224.51
  L 27.17 213.00
  L 51.08 189.05
  Z"
/>
<path fill="#811c1b" d="
  M 62.00 200.85
  L 66.48 204.85
  L 58.49 212.84
  L 42.71 228.72
  Q 42.24 228.37 42.11 228.36
  L 38.22 224.51
  L 62.00 200.85
  Z"
/>
<path fill="#606b75" d="
  M 27.17 213.00
  L 38.22 224.51
  L 42.11 228.36
  Q 37.80 233.63 32.49 237.78
  Q 23.57 228.91 14.75 220.02
  C 13.45 218.72 14.04 215.95 15.29 214.61
  C 17.16 212.61 19.62 209.48 22.52 209.70
  Q 24.33 209.84 27.17 213.00
  Z"
/>
<path fill="#4e5962" d="
  M 42.11 228.36
  Q 42.24 228.37 42.71 228.72
  C 45.77 230.58 47.24 234.28 44.38 237.00
  C 42.30 238.98 39.02 243.66 35.79 241.04
  Q 33.97 239.56 32.49 237.78
  Q 37.80 233.63 42.11 228.36
  Z"
/>
</svg>
